PathFileType	4	(X/Y/Z)	/Users/mathieubourgeois/Desktop/Analyse/Traitement/Sujet_02/Data/Transformed_Sujet_02_velo_80.trc
DataRate	CameraRate	NumFrames	NumMarkers	Units	OrigDataRate	OrigDataStartFrame	OrigNumFrames
120.000000	120.000000	5	36	mm	120.000000	943	1886
Frame#	Time	RFHD			RANE			STRN			LANI			LKNE			T10			RHUM			RWRB			C7			LFWT			LTOE			RTOE			LWRA			LBWT			RBWT			RFWT			LKNI			RKNI			RKNE			LANE			RANI			LHEE			RHEE			LHUM			LRAD			RRAD			RWRA			LWRB			LFHD			LBHD			RBHD			RSHO			LSHO			CLAV			LCAR			RCAR			
		X1	Y1	Z1	X2	Y2	Z2	X3	Y3	Z3	X4	Y4	Z4	X5	Y5	Z5	X6	Y6	Z6	X7	Y7	Z7	X8	Y8	Z8	X9	Y9	Z9	X10	Y10	Z10	X11	Y11	Z11	X12	Y12	Z12	X13	Y13	Z13	X14	Y14	Z14	X15	Y15	Z15	X16	Y16	Z16	X17	Y17	Z17	X18	Y18	Z18	X19	Y19	Z19	X20	Y20	Z20	X21	Y21	Z21	X22	Y22	Z22	X23	Y23	Z23	X24	Y24	Z24	X25	Y25	Z25	X26	Y26	Z26	X27	Y27	Z27	X28	Y28	Z28	X29	Y29	Z29	X30	Y30	Z30	X31	Y31	Z31	X32	Y32	Z32	X33	Y33	Z33	X34	Y34	Z34	X35	Y35	Z35	X36	Y36	Z36	

944	7.858333333333333	46.59436798095702	1476.686767578125	124.1645278930663	-360.85888671875	315.4207458496094	172.7409210205077	-220.5790557861328	1277.286987304688	22.17019653320302	-149.0676727294922	569.9680786132812	-64.57431793212895	-45.05353927612303	976.8278198242188	-126.4925765991212	-373.9542541503906	1521.410034179688	22.59574699401842	-53.42729949951175	1190.176513671875	229.8363342285155	176.4205322265625	1024.493041992188	168.7394866943359	-130.2061920166016	1581.411376953125	14.86200428009022	-404.3130493164062	1222.43603515625	-89.74030303955089	46.02658843994142	512.7595825195312	-133.424057006836	-168.1039276123047	199.1355285644531	152.5234375	216.0005493164063	1046.510986328125	-159.6538848876953	-594.080322265625	1201.119750976562	-46.67048263549819	-595.184326171875	1207.580078125	75.27832794189439	-421.7131958007812	1228.093139648438	175.8409118652342	-0.6784935593605014	951.9962158203125	-22.53158187866217	-160.6459808349609	708.5241088867188	104.7856826782226	-211.0541381835938	749.6650390625	204.2532501220702	-174.0890197753906	560.8204345703125	-156.6055297851563	-328.4590148925781	326.2671203613281	87.30719757080072	-241.9348297119141	523.0066528320312	-112.7848358154297	-434.8217468261719	303.6582946777344	118.489143371582	-30.29663276672361	1204.7197265625	-183.310028076172	28.77827072143557	1245.493041992188	-202.5929412841798	4.070350646972624	1239.562744140625	262.9873046874999	206.5026092529297	1055.539672851562	222.9907836914062	178.1037750244141	1021.500610351562	-100.4204788208008	57.83821487426758	1431.968994140625	-26.39847373962411	-19.02324295043945	1562.292114257812	-56.27286529541025	-13.84243965148927	1592.531127929688	99.9897460937499	-123.6074752807617	1521.725952148438	162.1847381591796	-112.5103302001953	1509.404541015625	-115.305389404297	-114.7913055419922	1421.283569335938	14.2148847579955	290.3500061035156	1039.8076171875	-73.97912597656251	294.3930969238281	1019.236145019531	147.5831451416015	
945	7.866666666666666	46.02833557128905	1476.481079101562	124.5145797729491	-367.1795654296875	325.5884399414062	172.807891845703	-221.2704467773438	1277.24365234375	22.07336235046376	-141.0354614257812	559.0271606445312	-64.91346740722661	-47.5967674255371	968.889404296875	-126.5592575073243	-374.4710083007812	1521.383544921875	22.62932777404771	-53.5529479980469	1190.0390625	229.4737701416015	176.1514282226562	1023.885986328125	168.6693878173828	-130.7182464599609	1581.31005859375	15.17240905761707	-404.7425537109375	1222.286865234375	-90.1991424560548	54.16008377075197	505.6080627441406	-133.3203887939453	-177.3587341308594	204.7607421875	152.5694274902343	215.9486389160157	1046.598266601562	-159.6762084960938	-594.4031982421875	1200.81591796875	-46.74913024902358	-595.6309204101562	1207.367553710938	75.18995666503892	-422.14599609375	1228.182861328125	175.3967285156249	-2.665659666061399	943.9428100585938	-22.80792999267584	-155.7764282226562	712.9136352539062	105.9605026245117	-206.3506317138672	754.808837890625	205.9026641845702	-167.2723388671875	549.0332641601562	-156.9969024658204	-334.5966186523438	335.6075439453125	87.34395599365229	-234.2847747802734	509.7435607910156	-113.3456420898438	-441.4996337890625	315.5986938476562	118.4560317993163	-30.3357410430908	1204.803588867188	-183.3266143798829	28.75626754760745	1245.662475585938	-202.411346435547	3.824115276336638	1239.451171875	262.7973937988281	206.4282684326172	1055.597412109375	222.9117126464843	178.0490570068359	1021.551513671875	-100.4701385498047	57.32836151123047	1431.739868164062	-26.00165367126473	-19.43062591552734	1562.028076171875	-56.01041412353525	-14.3322629928589	1592.322021484375	100.256248474121	-124.1895065307617	1521.534301757812	162.3250885009764	-112.8698196411133	1509.337036132812	-115.0576553344728	-115.3744812011719	1421.169189453125	14.35497856140127	290.5584106445312	1039.720092773438	-74.4447708129883	294.3490905761719	1019.295654296875	147.5006408691406	
946	7.875	45.51575088500975	1476.289794921875	124.8930282592773	-372.4974975585938	336.2421264648438	172.956314086914	-221.8593292236328	1277.218505859375	22.02570152282704	-133.7403869628906	546.9584350585938	-65.90834808349614	-49.78200912475585	959.6604614257812	-127.3459777832032	-374.9765930175781	1521.33642578125	22.73773956298814	-53.71675109863284	1189.950927734375	229.2093963623046	175.8752899169922	1023.546691894531	168.6718292236328	-131.23876953125	1581.25830078125	15.52754020690907	-405.0074157714844	1222.096923828125	-90.70237731933605	61.13767242431642	497.8566589355469	-133.6623687744141	-185.9319152832032	210.999267578125	152.6531066894531	215.8836975097657	1046.6904296875	-159.7466888427735	-594.748779296875	1200.517456054688	-46.89182662963881	-596.0007934570312	1207.1748046875	75.03116607666001	-422.5902099609375	1228.29345703125	175.0277252197264	-4.901715755462644	935.0549926757812	-23.80889892578131	-150.6140899658203	717.7318725585938	107.0899581909179	-200.7860870361328	759.4302978515625	206.788848876953	-161.0921173095703	536.5797729492188	-157.4257507324219	-339.9227294921875	345.6569213867188	87.41391754150385	-227.8897705078125	495.7874145507812	-114.0893859863282	-447.2658386230469	328.2418823242188	118.4588394165038	-30.3897075653076	1204.947265625	-183.2447509765626	28.71614074707034	1245.868896484375	-202.1398315429688	3.547496318817107	1239.369873046875	262.6603393554687	206.3414154052734	1055.621215820312	222.8504333496093	177.9932556152344	1021.585327148438	-100.5578155517578	56.89898681640625	1431.445678710938	-25.57600975036629	-19.77569007873534	1561.775268554688	-55.75089263916025	-14.75858592987062	1592.151977539062	100.5419540405272	-124.695541381836	1521.356811523438	162.5147705078124	-113.2338485717773	1509.289428710938	-114.7356414794923	-115.9103393554688	1421.113159179688	14.53395080566396	290.5112915039062	1039.725830078125	-74.55254364013673	294.2869262695312	1019.386108398438	147.388198852539	
947	7.883333333333333	45.09344100952147	1476.16845703125	125.3251571655273	-377.1239013671875	347.6303405761719	173.0420532226562	-222.4926910400391	1277.220336914062	22.04701805114735	-131.3065338134766	533.6715087890625	-67.11354064941411	-52.41504669189452	949.692626953125	-128.2713775634766	-375.4913940429688	1521.305541992188	22.86667633056627	-53.87509918212893	1189.8525390625	228.9720306396484	175.7973175048828	1023.533996582031	168.5666198730468	-131.7078399658203	1581.208984375	15.90638256072987	-405.1814575195312	1221.816162109375	-91.21994781494152	67.65639495849611	488.8724670410156	-133.8404846191407	-193.8222808837891	217.7670745849609	152.6631317138672	215.823486328125	1046.775512695312	-159.7996978759766	-595.0230102539062	1200.291259765625	-47.09342956542983	-596.3582153320312	1206.996215820312	74.85209655761705	-422.9525756835938	1228.3583984375	174.4715423583983	-7.846419334411618	925.799072265625	-24.81024551391607	-145.2481536865234	723.0159912109375	108.2186965942382	-195.287338256836	765.1981811523438	208.8749847412109	-155.6021423339843	523.5779418945312	-157.2995605468751	-344.3267211914062	356.3035888671875	87.44316864013665	-220.7236175537109	481.8343200683594	-114.4717712402344	-452.1643371582031	341.5517272949219	118.4456481933593	-30.43688392639158	1205.116088867188	-183.0252227783204	28.67528724670413	1246.091430664062	-201.8191680908204	3.332602739334074	1239.28076171875	262.5326538085937	206.2601470947265	1055.650024414062	222.7894744873047	177.9258117675781	1021.633422851562	-100.6372528076172	56.47299194335938	1431.249755859375	-25.10268592834481	-20.1357135772705	1561.594116210938	-55.35317611694345	-15.12172412872316	1592.030395507812	100.8774337768554	-125.2710876464844	1521.2109375	162.7619628906249	-113.6258163452148	1509.282592773438	-114.3932189941407	-116.4537353515625	1421.048217773438	14.76464176177968	290.46240234375	1039.6904296875	-74.66601562500001	294.2264709472656	1019.473999023438	147.264663696289	
948	7.891666666666667	44.6028480529785	1476.037841796875	125.7800979614257	-380.8119506835938	359.5527038574219	173.1591339111327	-222.9832153320312	1277.241088867188	22.11212158203114	-122.3503799438476	522.4588012695312	-67.45362854003911	-55.45851898193358	939.0084228515625	-129.2627410888672	-375.8982238769531	1521.181884765625	22.97266387939439	-53.99481582641604	1189.763549804688	228.7582550048827	175.744155883789	1023.525207519531	168.4485778808593	-132.1558990478516	1581.189819335938	16.37367820739735	-405.2259521484375	1221.488891601562	-91.86199951171886	73.47615814208986	478.9153442382812	-133.9703369140625	-200.8756713867188	225.1493682861328	152.7621917724609	215.7614898681641	1046.859375	-159.8824920654297	-595.185302734375	1200.102905273438	-47.30550384521499	-596.703369140625	1206.834594726562	74.61427307128892	-423.3360290527344	1228.492065429688	174.0285339355467	-10.88320827484131	914.9788208007812	-25.70960044860846	-138.3381958007812	728.8007202148438	109.0796203613281	-189.4566345214844	771.4014892578125	210.461212158203	-150.4264068603515	510.074951171875	-157.6862945556641	-347.7995300292969	367.489013671875	87.51949310302727	-214.8836517333984	467.2259521484375	-114.8829879760743	-456.0231018066406	355.3638610839844	118.4656524658202	-30.4745349884033	1205.303833007812	-182.7299957275391	28.63597679138186	1246.3466796875	-201.5005035400391	3.164175033569304	1239.169189453125	262.4303894042968	206.1729736328125	1055.664184570312	222.7067260742187	177.9070587158203	1021.640625	-100.7425613403321	56.04641342163086	1431.14501953125	-24.6361503601075	-20.42491722106933	1561.473754882812	-54.97187423706064	-15.51831626892091	1591.94140625	101.320571899414	-125.793327331543	1521.04443359375	163.0958404541014	-113.9016571044922	1509.357788085938	-113.981903076172	-116.8884506225586	1421.019897460938	15.08813095092763	290.21337890625	1039.762451171875	-74.43743896484376	294.1700439453125	1019.538024902344	147.1399536132812	
